<?xml version="1.0" standalone="no"?>
<!DOCTYPE svg PUBLIC "-//W3C//DTD SVG 20010904//EN"
 "http://www.w3.org/TR/2001/REC-SVG-20010904/DTD/svg10.dtd">
<svg version="1.0" xmlns="http://www.w3.org/2000/svg"
 width="512.000000pt" height="512.000000pt" viewBox="0 0 512.000000 512.000000"
 preserveAspectRatio="xMidYMid meet">
<metadata>
Created by potrace 1.14, written by Peter Selinger 2001-2017
</metadata>
<g transform="translate(0.000000,512.000000) scale(0.100000,-0.100000)"
fill="#000000" stroke="none">
<path d="M2134 5111 c-2 -2 -4 -41 -4 -85 l0 -82 84 1 84 0 4 55 c2 31 1 69
-2 85 l-5 30 -78 0 c-43 0 -80 -2 -83 -4z"/>
<path d="M2782 4937 c-60 -96 -101 -231 -109 -360 l-6 -98 64 5 c35 2 73 5 85
5 19 1 22 9 27 79 7 92 28 165 69 249 17 35 29 65 27 66 -14 12 -129 87 -133
87 -2 0 -13 -15 -24 -33z"/>
<path d="M257 4935 c-3 -9 -2 -141 2 -156 0 -3 38 -5 84 -5 l82 1 0 85 0 84
-82 1 c-49 0 -84 -4 -86 -10z"/>
<path d="M3677 4939 c-9 -6 -13 -31 -12 -86 l1 -78 84 0 85 0 1 70 c3 103 5
100 -76 101 -38 0 -76 -3 -83 -7z"/>
<path d="M1279 4925 c-68 -18 -145 -63 -200 -117 -45 -44 -105 -126 -97 -133
2 -2 36 -19 77 -38 l74 -35 25 36 c47 69 125 119 202 129 40 6 40 5 40 -27 0
-18 -16 -82 -35 -142 -42 -129 -47 -171 -29 -217 18 -43 48 -69 91 -77 38 -7
141 1 191 15 18 5 36 10 40 10 4 1 21 4 37 7 60 11 85 11 85 0 0 -6 -12 -60
-26 -121 -48 -209 -49 -219 -25 -269 35 -72 107 -95 217 -68 l66 16 19 -25
c18 -24 24 -51 34 -149 9 -82 28 -140 62 -189 2 -4 133 98 133 104 0 2 -4 15
-10 29 -5 14 -12 51 -15 83 -16 168 -69 268 -160 303 -36 14 -113 14 -150 0
-15 -6 -30 -9 -32 -7 -2 2 13 71 32 153 45 183 47 215 24 253 -46 75 -119 86
-319 46 -13 -2 -42 -7 -64 -11 -22 -3 -44 -8 -48 -10 -14 -9 -8 19 18 96 17
47 28 105 31 155 4 69 1 86 -19 124 -35 68 -66 86 -151 87 -40 1 -93 -4 -118
-11z"/>
<path d="M2383 4549 c-40 -17 -73 -36 -73 -42 0 -14 188 -449 198 -459 6 -5
132 44 151 59 5 4 -195 474 -202 473 -1 0 -35 -14 -74 -31z"/>
<path d="M3050 4433 c-1 -4 -21 -30 -46 -58 -72 -78 -234 -330 -234 -363 0 -5
32 -23 71 -41 55 -24 75 -28 85 -20 8 6 14 16 14 21 0 21 101 176 170 262 l71
89 -38 39 c-44 46 -93 83 -93 71z"/>
<path d="M4295 4314 c-104 -22 -114 -24 -198 -50 -245 -77 -538 -279 -642
-443 -15 -24 -50 -57 -83 -78 -171 -109 -317 -262 -497 -521 -34 -49 -55 -70
-65 -66 -8 3 -69 24 -135 46 l-120 41 -150 -52 c-83 -29 -235 -82 -339 -119
l-189 -65 -19 24 c-151 188 -331 337 -526 433 -78 39 -223 92 -277 101 -219
38 -362 33 -512 -18 -125 -41 -196 -84 -277 -165 -102 -101 -156 -223 -156
-357 -1 -149 36 -249 126 -342 l55 -56 49 72 48 73 -33 33 c-56 59 -70 99 -70
205 0 83 3 102 27 151 50 102 152 183 283 225 67 22 100 27 200 28 66 0 143
-2 172 -6 134 -20 325 -101 460 -197 69 -49 273 -244 273 -262 0 -4 -15 -12
-32 -17 -48 -14 -807 -281 -843 -297 -16 -7 -46 -27 -65 -45 -46 -42 -88 -80
-185 -165 -44 -38 -89 -79 -101 -90 -11 -11 -52 -47 -89 -80 -38 -33 -73 -65
-79 -70 -6 -6 -47 -42 -91 -80 -164 -144 -215 -195 -215 -215 0 -44 22 -79 63
-98 23 -11 103 -49 177 -84 74 -36 239 -114 365 -173 127 -60 234 -111 238
-115 4 -4 9 -161 10 -350 l2 -343 28 -20 c15 -12 384 -171 820 -354 435 -183
799 -337 807 -341 36 -21 90 -5 318 94 81 35 101 44 162 69 36 14 79 32 95 40
17 7 59 25 95 40 36 15 79 33 95 40 30 14 723 305 866 364 130 54 121 24 122
420 l0 339 86 41 c47 22 149 70 226 107 136 64 222 105 420 199 111 53 133 80
112 141 -7 20 -23 35 -282 265 -77 68 -142 126 -145 129 -3 3 -43 39 -90 80
-47 41 -90 80 -96 85 -16 15 -135 120 -166 147 -15 13 -69 37 -120 55 -108 37
-395 138 -421 148 -14 6 4 22 85 74 222 143 448 256 656 326 65 22 82 32 78
44 -2 9 -13 44 -23 79 -11 42 -22 62 -33 62 -8 0 -62 -18 -120 -39 -273 -100
-506 -223 -745 -393 -60 -43 -117 -77 -125 -74 -8 2 -94 32 -190 66 -96 34
-215 75 -265 92 -49 17 -94 34 -99 38 -8 8 49 101 66 108 4 2 8 8 8 14 0 17
121 161 208 246 82 80 101 93 103 72 3 -18 11 -43 35 -96 32 -74 152 -174 226
-190 172 -37 348 43 424 193 25 51 29 69 29 143 0 75 -3 91 -28 133 -54 91
-168 157 -278 161 -27 0 -49 4 -49 8 0 12 181 128 249 160 94 43 215 83 296
98 96 17 95 16 90 41 -2 12 -7 47 -11 78 -3 31 -9 59 -12 62 -4 3 -34 0 -67
-7z m-428 -631 c145 -68 52 -278 -123 -276 -28 0 -64 7 -80 16 -61 32 -105
103 -107 176 -2 43 0 47 33 63 93 45 208 54 277 21z m-1227 -648 c41 -14 78
-29 83 -34 4 -4 -25 -75 -66 -157 -95 -192 -133 -282 -121 -294 10 -9 146 -62
149 -58 1 2 15 36 30 76 16 40 32 75 37 78 4 3 8 11 8 18 0 12 125 254 140
269 6 7 331 -100 494 -163 25 -9 24 -11 -89 -125 -63 -64 -115 -120 -115 -125
0 -4 28 -32 62 -60 l62 -52 90 94 c119 123 191 188 208 188 7 0 83 -25 168
-54 259 -91 237 -81 215 -93 -11 -5 -339 -137 -729 -293 l-708 -283 -724 289
c-398 159 -724 292 -724 296 0 3 17 12 38 18 20 6 46 15 57 20 11 5 47 18 80
29 33 11 164 56 290 101 l230 81 20 -25 c11 -14 44 -70 73 -125 l53 -100 32
14 c68 29 117 56 117 64 0 10 -64 132 -97 184 -14 22 -22 42 -18 45 9 9 546
200 566 201 8 1 49 -10 89 -24z m-253 -1200 c-12 -9 -119 -104 -190 -169 -19
-17 -172 -156 -211 -191 -6 -5 -52 -46 -101 -90 -50 -44 -110 -98 -133 -120
-24 -22 -49 -43 -56 -47 -6 -4 -63 18 -126 49 -63 30 -135 64 -160 75 -25 12
-114 54 -199 94 -84 41 -155 74 -156 74 -2 0 -87 41 -189 90 -103 50 -188 90
-190 90 -2 0 -79 37 -172 81 -93 45 -188 90 -211 100 -24 10 -43 22 -43 27 0
9 51 56 200 187 25 22 47 42 50 45 3 3 43 39 90 80 47 41 87 77 90 80 3 3 46
42 97 87 l92 82 766 -307 c570 -228 762 -309 752 -317z m1979 516 c28 -25 82
-73 120 -107 38 -34 139 -123 224 -199 85 -75 156 -140 158 -144 1 -4 -33 -24
-75 -44 -43 -20 -145 -68 -228 -107 -82 -40 -184 -88 -225 -107 -187 -88 -244
-115 -383 -182 -82 -39 -150 -71 -152 -71 -5 0 -319 -150 -348 -166 -31 -17
-34 -15 -137 80 -25 22 -83 75 -130 116 -46 41 -94 84 -105 95 -11 11 -60 56
-110 100 -49 44 -110 98 -135 121 -25 23 -62 56 -83 74 -28 24 -35 35 -25 41
7 4 297 120 643 258 347 139 639 256 650 261 11 5 65 27 120 49 l100 39 35
-31 c19 -16 58 -51 86 -76z m-1895 -1402 c-1 -397 -3 -724 -5 -727 -3 -2 -60
19 -128 48 -68 29 -224 95 -348 146 -124 52 -234 98 -245 103 -52 23 -133 57
-416 177 l-306 128 0 248 c-1 136 2 250 7 253 4 3 108 -43 231 -101 458 -217
416 -199 464 -196 11 1 34 14 50 30 17 15 93 83 170 152 77 68 142 127 145
130 3 3 28 25 55 50 87 78 238 213 280 252 22 20 41 35 43 33 2 -2 3 -328 3
-726z m300 620 c98 -89 82 -75 199 -179 52 -47 99 -89 106 -95 6 -5 50 -46 99
-90 49 -44 100 -91 114 -104 47 -42 90 -73 108 -75 25 -4 69 13 228 89 258
124 453 215 460 215 3 0 5 -114 5 -253 l0 -254 -67 -28 c-38 -16 -86 -36 -108
-46 -22 -10 -182 -77 -355 -149 -173 -72 -328 -137 -345 -145 -78 -35 -559
-235 -565 -235 -4 0 -7 328 -7 729 l0 730 24 -18 c12 -10 59 -52 104 -92z"/>
<path d="M474 4271 c-214 -53 -396 -217 -441 -398 l-11 -42 47 -10 c126 -26
116 -28 136 26 10 26 29 64 43 83 156 213 458 249 772 90 106 -53 180 -108
273 -203 l87 -88 65 47 c36 26 65 51 65 55 0 4 -34 44 -76 89 -172 182 -388
305 -619 353 -101 20 -255 20 -341 -2z"/>
<path d="M4774 4005 l0 -85 86 0 85 0 -1 73 c-1 39 -2 78 -3 85 -1 8 -25 12
-84 12 l-84 0 1 -85z"/>
<path d="M1705 3498 l1 -83 85 -3 85 -3 -1 83 0 83 -86 3 -85 3 1 -83z"/>
<path d="M5069 3506 c-2 -2 -35 -6 -74 -10 -70 -6 -121 -13 -141 -20 -8 -3 -6
-28 5 -86 l15 -82 41 6 c22 3 63 8 90 11 28 3 64 8 82 11 l32 5 -4 57 c-1 31
-3 69 -4 85 -1 19 -6 27 -19 27 -10 0 -21 -2 -23 -4z"/>
<path d="M769 3048 c-4 -85 -3 -131 2 -140 6 -10 24 -11 125 -9 l41 1 1 85 2
85 -85 0 c-81 0 -85 -1 -86 -22z"/>
</g>
</svg>
