<?xml version="1.0" standalone="no"?>
<!DOCTYPE svg PUBLIC "-//W3C//DTD SVG 20010904//EN"
 "http://www.w3.org/TR/2001/REC-SVG-20010904/DTD/svg10.dtd">
<svg version="1.0" xmlns="http://www.w3.org/2000/svg"
 width="981.000000pt" height="981.000000pt" viewBox="0 0 981.000000 981.000000"
 preserveAspectRatio="xMidYMid meet">
<metadata>
Created by potrace 1.14, written by Peter Selinger 2001-2017
</metadata>
<g transform="translate(0.000000,981.000000) scale(0.100000,-0.100000)"
fill="#000000" stroke="none">
<path d="M3449 9627 c-103 -52 -3366 -1942 -3387 -1961 -48 -42 -65 -108 -50
-184 10 -45 35 -72 646 -685 l637 -637 -632 -633 c-347 -347 -636 -642 -642
-654 -6 -12 -11 -48 -11 -80 0 -59 22 -112 59 -140 9 -7 305 -180 658 -384
l642 -371 3 -832 c3 -907 0 -858 60 -912 18 -18 3148 -1832 3364 -1951 84 -46
144 -46 230 2 211 116 3343 1931 3362 1949 13 11 29 30 35 41 9 15 13 250 17
860 l5 839 643 371 c353 205 654 383 668 396 14 13 32 36 40 51 17 32 18 115
3 155 -5 15 -293 312 -644 663 l-635 635 631 630 c347 347 637 642 645 657 18
34 18 119 0 161 -7 18 -24 42 -37 53 -18 16 -3046 1771 -3370 1953 -64 36
-139 42 -192 15 -18 -9 -314 -298 -659 -642 l-628 -627 -627 627 c-435 434
-639 632 -665 643 -53 22 -117 19 -169 -8z m615 -916 l549 -549 -69 -40 c-222
-128 -2913 -1681 -2933 -1691 -23 -13 -43 6 -572 535 -302 302 -545 552 -541
555 10 10 3005 1739 3012 1739 3 0 252 -247 554 -549z m3769 -328 l1498 -867
-548 -548 c-301 -301 -551 -548 -554 -548 -5 0 -2914 1678 -3013 1737 -14 9
1087 1104 1104 1098 8 -4 689 -396 1513 -872z m-1495 -1297 c785 -453 1457
-841 1493 -862 l66 -39 -1493 -863 -1494 -863 -1457 842 c-802 463 -1474 851
-1494 863 l-36 21 700 405 c386 223 1057 611 1492 862 434 251 791 457 793
458 2 0 645 -371 1430 -824z m-3229 -2010 l1502 -870 -548 -548 c-301 -301
-551 -548 -554 -548 -3 0 -302 172 -665 381 -362 210 -1010 584 -1439 831
-429 248 -811 469 -848 491 l-69 40 549 549 c301 302 553 547 559 546 5 -2
686 -394 1513 -872z m5674 326 l548 -548 -1511 -874 -1512 -873 -549 549
c-506 506 -548 550 -530 562 45 31 2987 1731 2996 1731 6 1 257 -246 558 -547z
m-4056 -4709 c-2 -1 -675 385 -1495 859 l-1492 863 0 642 c0 354 2 643 4 643
3 0 380 -216 838 -481 458 -265 850 -490 870 -500 47 -24 121 -24 173 0 27 13
214 193 570 550 l530 531 3 -1552 c1 -853 1 -1553 -1 -1555z m1483 2017 c19
-5 55 -10 80 -10 42 0 116 41 904 496 473 273 865 498 873 501 11 4 13 -104
13 -638 l0 -644 -1437 -830 c-790 -456 -1462 -845 -1494 -863 l-59 -33 0 1558
0 1558 543 -543 c420 -420 550 -544 577 -552z"/>
</g>
</svg>
